%TF.GenerationSoftware,KiCad,Pcbnew,10.0.5*%
%TF.CreationDate,2026-08-23T19:39:02+05:30*%
%TF.ProjectId,sero tester,7365726f-2074-4657-9374-65722e6b6963,rev?*%
%TF.SameCoordinates,Original*%
%TF.FileFunction,Legend,Top*%
%TF.FilePolarity,Positive*%
%FSLAX46Y46*%
G04 Gerber Fmt 4.6, Leading zero omitted, Abs format (unit mm)*
G04 Created by KiCad (PCBNEW 10.0.5) date 2026-08-23 19:39:02*
%MOMM*%
%LPD*%
G01*
G04 APERTURE LIST*
%ADD10C,0.150000*%
%ADD11C,0.120000*%
G04 APERTURE END LIST*
D10*
X142333333Y-94324819D02*
X142000000Y-93848628D01*
X141761905Y-94324819D02*
X141761905Y-93324819D01*
X141761905Y-93324819D02*
X142142857Y-93324819D01*
X142142857Y-93324819D02*
X142238095Y-93372438D01*
X142238095Y-93372438D02*
X142285714Y-93420057D01*
X142285714Y-93420057D02*
X142333333Y-93515295D01*
X142333333Y-93515295D02*
X142333333Y-93658152D01*
X142333333Y-93658152D02*
X142285714Y-93753390D01*
X142285714Y-93753390D02*
X142238095Y-93801009D01*
X142238095Y-93801009D02*
X142142857Y-93848628D01*
X142142857Y-93848628D02*
X141761905Y-93848628D01*
X143285714Y-94324819D02*
X142714286Y-94324819D01*
X143000000Y-94324819D02*
X143000000Y-93324819D01*
X143000000Y-93324819D02*
X142904762Y-93467676D01*
X142904762Y-93467676D02*
X142809524Y-93562914D01*
X142809524Y-93562914D02*
X142714286Y-93610533D01*
X155166666Y-83454819D02*
X155166666Y-84169104D01*
X155166666Y-84169104D02*
X155119047Y-84311961D01*
X155119047Y-84311961D02*
X155023809Y-84407200D01*
X155023809Y-84407200D02*
X154880952Y-84454819D01*
X154880952Y-84454819D02*
X154785714Y-84454819D01*
X155595238Y-83550057D02*
X155642857Y-83502438D01*
X155642857Y-83502438D02*
X155738095Y-83454819D01*
X155738095Y-83454819D02*
X155976190Y-83454819D01*
X155976190Y-83454819D02*
X156071428Y-83502438D01*
X156071428Y-83502438D02*
X156119047Y-83550057D01*
X156119047Y-83550057D02*
X156166666Y-83645295D01*
X156166666Y-83645295D02*
X156166666Y-83740533D01*
X156166666Y-83740533D02*
X156119047Y-83883390D01*
X156119047Y-83883390D02*
X155547619Y-84454819D01*
X155547619Y-84454819D02*
X156166666Y-84454819D01*
X137574819Y-87738094D02*
X136574819Y-87738094D01*
X136574819Y-87738094D02*
X136574819Y-87499999D01*
X136574819Y-87499999D02*
X136622438Y-87357142D01*
X136622438Y-87357142D02*
X136717676Y-87261904D01*
X136717676Y-87261904D02*
X136812914Y-87214285D01*
X136812914Y-87214285D02*
X137003390Y-87166666D01*
X137003390Y-87166666D02*
X137146247Y-87166666D01*
X137146247Y-87166666D02*
X137336723Y-87214285D01*
X137336723Y-87214285D02*
X137431961Y-87261904D01*
X137431961Y-87261904D02*
X137527200Y-87357142D01*
X137527200Y-87357142D02*
X137574819Y-87499999D01*
X137574819Y-87499999D02*
X137574819Y-87738094D01*
X136574819Y-86833332D02*
X136574819Y-86214285D01*
X136574819Y-86214285D02*
X136955771Y-86547618D01*
X136955771Y-86547618D02*
X136955771Y-86404761D01*
X136955771Y-86404761D02*
X137003390Y-86309523D01*
X137003390Y-86309523D02*
X137051009Y-86261904D01*
X137051009Y-86261904D02*
X137146247Y-86214285D01*
X137146247Y-86214285D02*
X137384342Y-86214285D01*
X137384342Y-86214285D02*
X137479580Y-86261904D01*
X137479580Y-86261904D02*
X137527200Y-86309523D01*
X137527200Y-86309523D02*
X137574819Y-86404761D01*
X137574819Y-86404761D02*
X137574819Y-86690475D01*
X137574819Y-86690475D02*
X137527200Y-86785713D01*
X137527200Y-86785713D02*
X137479580Y-86833332D01*
X137254819Y-83451904D02*
X136254819Y-83451904D01*
X137254819Y-82880476D02*
X136683390Y-83309047D01*
X136254819Y-82880476D02*
X136826247Y-83451904D01*
X139379819Y-71095238D02*
X138903628Y-71428571D01*
X139379819Y-71666666D02*
X138379819Y-71666666D01*
X138379819Y-71666666D02*
X138379819Y-71285714D01*
X138379819Y-71285714D02*
X138427438Y-71190476D01*
X138427438Y-71190476D02*
X138475057Y-71142857D01*
X138475057Y-71142857D02*
X138570295Y-71095238D01*
X138570295Y-71095238D02*
X138713152Y-71095238D01*
X138713152Y-71095238D02*
X138808390Y-71142857D01*
X138808390Y-71142857D02*
X138856009Y-71190476D01*
X138856009Y-71190476D02*
X138903628Y-71285714D01*
X138903628Y-71285714D02*
X138903628Y-71666666D01*
X138379819Y-70809523D02*
X139379819Y-70476190D01*
X139379819Y-70476190D02*
X138379819Y-70142857D01*
X139379819Y-69285714D02*
X139379819Y-69857142D01*
X139379819Y-69571428D02*
X138379819Y-69571428D01*
X138379819Y-69571428D02*
X138522676Y-69666666D01*
X138522676Y-69666666D02*
X138617914Y-69761904D01*
X138617914Y-69761904D02*
X138665533Y-69857142D01*
X151159580Y-89166666D02*
X151207200Y-89214285D01*
X151207200Y-89214285D02*
X151254819Y-89357142D01*
X151254819Y-89357142D02*
X151254819Y-89452380D01*
X151254819Y-89452380D02*
X151207200Y-89595237D01*
X151207200Y-89595237D02*
X151111961Y-89690475D01*
X151111961Y-89690475D02*
X151016723Y-89738094D01*
X151016723Y-89738094D02*
X150826247Y-89785713D01*
X150826247Y-89785713D02*
X150683390Y-89785713D01*
X150683390Y-89785713D02*
X150492914Y-89738094D01*
X150492914Y-89738094D02*
X150397676Y-89690475D01*
X150397676Y-89690475D02*
X150302438Y-89595237D01*
X150302438Y-89595237D02*
X150254819Y-89452380D01*
X150254819Y-89452380D02*
X150254819Y-89357142D01*
X150254819Y-89357142D02*
X150302438Y-89214285D01*
X150302438Y-89214285D02*
X150350057Y-89166666D01*
X151254819Y-88214285D02*
X151254819Y-88785713D01*
X151254819Y-88499999D02*
X150254819Y-88499999D01*
X150254819Y-88499999D02*
X150397676Y-88595237D01*
X150397676Y-88595237D02*
X150492914Y-88690475D01*
X150492914Y-88690475D02*
X150540533Y-88785713D01*
X154333333Y-77084819D02*
X154000000Y-76608628D01*
X153761905Y-77084819D02*
X153761905Y-76084819D01*
X153761905Y-76084819D02*
X154142857Y-76084819D01*
X154142857Y-76084819D02*
X154238095Y-76132438D01*
X154238095Y-76132438D02*
X154285714Y-76180057D01*
X154285714Y-76180057D02*
X154333333Y-76275295D01*
X154333333Y-76275295D02*
X154333333Y-76418152D01*
X154333333Y-76418152D02*
X154285714Y-76513390D01*
X154285714Y-76513390D02*
X154238095Y-76561009D01*
X154238095Y-76561009D02*
X154142857Y-76608628D01*
X154142857Y-76608628D02*
X153761905Y-76608628D01*
X154714286Y-76180057D02*
X154761905Y-76132438D01*
X154761905Y-76132438D02*
X154857143Y-76084819D01*
X154857143Y-76084819D02*
X155095238Y-76084819D01*
X155095238Y-76084819D02*
X155190476Y-76132438D01*
X155190476Y-76132438D02*
X155238095Y-76180057D01*
X155238095Y-76180057D02*
X155285714Y-76275295D01*
X155285714Y-76275295D02*
X155285714Y-76370533D01*
X155285714Y-76370533D02*
X155238095Y-76513390D01*
X155238095Y-76513390D02*
X154666667Y-77084819D01*
X154666667Y-77084819D02*
X155285714Y-77084819D01*
X133084819Y-73666666D02*
X132608628Y-73999999D01*
X133084819Y-74238094D02*
X132084819Y-74238094D01*
X132084819Y-74238094D02*
X132084819Y-73857142D01*
X132084819Y-73857142D02*
X132132438Y-73761904D01*
X132132438Y-73761904D02*
X132180057Y-73714285D01*
X132180057Y-73714285D02*
X132275295Y-73666666D01*
X132275295Y-73666666D02*
X132418152Y-73666666D01*
X132418152Y-73666666D02*
X132513390Y-73714285D01*
X132513390Y-73714285D02*
X132561009Y-73761904D01*
X132561009Y-73761904D02*
X132608628Y-73857142D01*
X132608628Y-73857142D02*
X132608628Y-74238094D01*
X132084819Y-73333332D02*
X132084819Y-72714285D01*
X132084819Y-72714285D02*
X132465771Y-73047618D01*
X132465771Y-73047618D02*
X132465771Y-72904761D01*
X132465771Y-72904761D02*
X132513390Y-72809523D01*
X132513390Y-72809523D02*
X132561009Y-72761904D01*
X132561009Y-72761904D02*
X132656247Y-72714285D01*
X132656247Y-72714285D02*
X132894342Y-72714285D01*
X132894342Y-72714285D02*
X132989580Y-72761904D01*
X132989580Y-72761904D02*
X133037200Y-72809523D01*
X133037200Y-72809523D02*
X133084819Y-72904761D01*
X133084819Y-72904761D02*
X133084819Y-73190475D01*
X133084819Y-73190475D02*
X133037200Y-73285713D01*
X133037200Y-73285713D02*
X132989580Y-73333332D01*
X142238095Y-76314819D02*
X142238095Y-77124342D01*
X142238095Y-77124342D02*
X142285714Y-77219580D01*
X142285714Y-77219580D02*
X142333333Y-77267200D01*
X142333333Y-77267200D02*
X142428571Y-77314819D01*
X142428571Y-77314819D02*
X142619047Y-77314819D01*
X142619047Y-77314819D02*
X142714285Y-77267200D01*
X142714285Y-77267200D02*
X142761904Y-77219580D01*
X142761904Y-77219580D02*
X142809523Y-77124342D01*
X142809523Y-77124342D02*
X142809523Y-76314819D01*
X143809523Y-77314819D02*
X143238095Y-77314819D01*
X143523809Y-77314819D02*
X143523809Y-76314819D01*
X143523809Y-76314819D02*
X143428571Y-76457676D01*
X143428571Y-76457676D02*
X143333333Y-76552914D01*
X143333333Y-76552914D02*
X143238095Y-76600533D01*
X131761905Y-84954819D02*
X131761905Y-83954819D01*
X131761905Y-83954819D02*
X132000000Y-83954819D01*
X132000000Y-83954819D02*
X132142857Y-84002438D01*
X132142857Y-84002438D02*
X132238095Y-84097676D01*
X132238095Y-84097676D02*
X132285714Y-84192914D01*
X132285714Y-84192914D02*
X132333333Y-84383390D01*
X132333333Y-84383390D02*
X132333333Y-84526247D01*
X132333333Y-84526247D02*
X132285714Y-84716723D01*
X132285714Y-84716723D02*
X132238095Y-84811961D01*
X132238095Y-84811961D02*
X132142857Y-84907200D01*
X132142857Y-84907200D02*
X132000000Y-84954819D01*
X132000000Y-84954819D02*
X131761905Y-84954819D01*
X133285714Y-84954819D02*
X132714286Y-84954819D01*
X133000000Y-84954819D02*
X133000000Y-83954819D01*
X133000000Y-83954819D02*
X132904762Y-84097676D01*
X132904762Y-84097676D02*
X132809524Y-84192914D01*
X132809524Y-84192914D02*
X132714286Y-84240533D01*
X129166666Y-76954819D02*
X129166666Y-77669104D01*
X129166666Y-77669104D02*
X129119047Y-77811961D01*
X129119047Y-77811961D02*
X129023809Y-77907200D01*
X129023809Y-77907200D02*
X128880952Y-77954819D01*
X128880952Y-77954819D02*
X128785714Y-77954819D01*
X130166666Y-77954819D02*
X129595238Y-77954819D01*
X129880952Y-77954819D02*
X129880952Y-76954819D01*
X129880952Y-76954819D02*
X129785714Y-77097676D01*
X129785714Y-77097676D02*
X129690476Y-77192914D01*
X129690476Y-77192914D02*
X129595238Y-77240533D01*
%TO.C,R1*%
D11*
X139230000Y-90130000D02*
X139230000Y-90460000D01*
X139230000Y-92870000D02*
X139230000Y-92540000D01*
X145770000Y-90130000D02*
X139230000Y-90130000D01*
X145770000Y-90460000D02*
X145770000Y-90130000D01*
X145770000Y-92540000D02*
X145770000Y-92870000D01*
X145770000Y-92870000D02*
X139230000Y-92870000D01*
%TO.C,J2*%
X157730000Y-82190000D02*
X159000000Y-82190000D01*
X157730000Y-83460000D02*
X157730000Y-82190000D01*
X160077358Y-85570000D02*
X160390000Y-85570000D01*
X160077358Y-86430000D02*
X160390000Y-86430000D01*
X160077358Y-88110000D02*
X160390000Y-88110000D01*
X160077358Y-88970000D02*
X160390000Y-88970000D01*
X160160000Y-83030000D02*
X160390000Y-83030000D01*
X160160000Y-83890000D02*
X160390000Y-83890000D01*
X160390000Y-84730000D02*
X163150000Y-84730000D01*
X160390000Y-87270000D02*
X163150000Y-87270000D01*
X163150000Y-85570000D02*
X169150000Y-85570000D01*
X163150000Y-88110000D02*
X169150000Y-88110000D01*
X169150000Y-85570000D02*
X169150000Y-86430000D01*
X169150000Y-86430000D02*
X163150000Y-86430000D01*
X169150000Y-88110000D02*
X169150000Y-88970000D01*
X169150000Y-88970000D02*
X163150000Y-88970000D01*
X160390000Y-82080000D02*
X163150000Y-82080000D01*
X163150000Y-89920000D01*
X160390000Y-89920000D01*
X160390000Y-82080000D01*
X163150000Y-83030000D02*
X169150000Y-83030000D01*
X169150000Y-83890000D01*
X163150000Y-83890000D01*
X163150000Y-83030000D01*
G36*
X163150000Y-83030000D02*
G01*
X169150000Y-83030000D01*
X169150000Y-83890000D01*
X163150000Y-83890000D01*
X163150000Y-83030000D01*
G37*
%TO.C,D3*%
X135000000Y-84230000D02*
X135000000Y-84880000D01*
X135000000Y-89770000D02*
X135000000Y-89120000D01*
X136120000Y-85480000D02*
X133880000Y-85480000D01*
X136120000Y-85600000D02*
X133880000Y-85600000D01*
X136120000Y-85720000D02*
X133880000Y-85720000D01*
X133880000Y-84880000D02*
X136120000Y-84880000D01*
X136120000Y-89120000D01*
X133880000Y-89120000D01*
X133880000Y-84880000D01*
%TO.C,RV1*%
X142454000Y-66980000D02*
X152495000Y-66980000D01*
X142454000Y-67750000D02*
X142454000Y-66980000D01*
X142454000Y-71500000D02*
X142454000Y-69250000D01*
X144105000Y-66180000D02*
X150845000Y-66180000D01*
X144105000Y-66980000D02*
X144105000Y-66180000D01*
X144355000Y-58780000D02*
X150595000Y-58780000D01*
X144355000Y-66180000D02*
X144355000Y-58780000D01*
X145031000Y-74020000D02*
X149920000Y-74020000D01*
X150595000Y-66180000D02*
X150595000Y-58780000D01*
X150845000Y-66980000D02*
X150845000Y-66180000D01*
X152495000Y-67750000D02*
X152495000Y-66980000D01*
X152495000Y-69250000D02*
X152495000Y-71500000D01*
X142454000Y-67750000D02*
X143125000Y-67750000D01*
X143125000Y-69250000D01*
X142454000Y-69250000D01*
X142454000Y-67750000D01*
X151825000Y-67750000D02*
X152495000Y-67750000D01*
X152495000Y-69250000D01*
X151825000Y-69250000D01*
X151825000Y-67750000D01*
%TO.C,C1*%
X151930000Y-91270000D02*
X151930000Y-86730000D01*
X151986000Y-91270000D02*
X151930000Y-91270000D01*
X154014000Y-86730000D02*
X154070000Y-86730000D01*
X154070000Y-86730000D02*
X154070000Y-91270000D01*
%TO.C,R2*%
X151230000Y-77630000D02*
X157770000Y-77630000D01*
X151230000Y-77960000D02*
X151230000Y-77630000D01*
X151230000Y-80040000D02*
X151230000Y-80370000D01*
X151230000Y-80370000D02*
X157770000Y-80370000D01*
X157770000Y-77630000D02*
X157770000Y-77960000D01*
X157770000Y-80370000D02*
X157770000Y-80040000D01*
%TO.C,R3*%
X133630000Y-70230000D02*
X133960000Y-70230000D01*
X133630000Y-76770000D02*
X133630000Y-70230000D01*
X133960000Y-76770000D02*
X133630000Y-76770000D01*
X136040000Y-76770000D02*
X136370000Y-76770000D01*
X136370000Y-70230000D02*
X136040000Y-70230000D01*
X136370000Y-76770000D02*
X136370000Y-70230000D01*
%TO.C,U1*%
X140350000Y-77860000D02*
X140350000Y-88140000D01*
X140350000Y-88140000D02*
X145650000Y-88140000D01*
X142000000Y-77860000D02*
X140350000Y-77860000D01*
X145650000Y-77860000D02*
X144000000Y-77860000D01*
X145650000Y-88140000D02*
X145650000Y-77860000D01*
X144000000Y-77860000D02*
G75*
G02*
X142000000Y-77860000I-1000000J0D01*
G01*
%TO.C,D1*%
X128940000Y-86764000D02*
X128940000Y-86920000D01*
X128940000Y-89080000D02*
X128940000Y-89236000D01*
X128940000Y-86764484D02*
G75*
G02*
X132171437Y-86920000I1560000J-1235516D01*
G01*
X129459039Y-86920000D02*
G75*
G02*
X131540961Y-86920000I1040961J-1080000D01*
G01*
X131540961Y-89080000D02*
G75*
G02*
X129459039Y-89080000I-1040961J1080000D01*
G01*
X132171437Y-89080000D02*
G75*
G02*
X128940000Y-89235516I-1671437J1080000D01*
G01*
%TO.C,J1*%
X118735000Y-80305000D02*
X124735000Y-80305000D01*
X118735000Y-81165000D02*
X118735000Y-80305000D01*
X124735000Y-81165000D02*
X118735000Y-81165000D01*
X127495000Y-82005000D02*
X124735000Y-82005000D01*
X127725000Y-82845000D02*
X127495000Y-82845000D01*
X127725000Y-83705000D02*
X127495000Y-83705000D01*
X127807642Y-80305000D02*
X127495000Y-80305000D01*
X127807642Y-81165000D02*
X127495000Y-81165000D01*
X130155000Y-83275000D02*
X130155000Y-84545000D01*
X130155000Y-84545000D02*
X128885000Y-84545000D01*
X118735000Y-82845000D02*
X124735000Y-82845000D01*
X124735000Y-83705000D01*
X118735000Y-83705000D01*
X118735000Y-82845000D01*
G36*
X118735000Y-82845000D02*
G01*
X124735000Y-82845000D01*
X124735000Y-83705000D01*
X118735000Y-83705000D01*
X118735000Y-82845000D01*
G37*
X124735000Y-79355000D02*
X127495000Y-79355000D01*
X127495000Y-84655000D01*
X124735000Y-84655000D01*
X124735000Y-79355000D01*
%TD*%
M02*
