M48
; DRILL file KiCad 10.0.5 date 2026-08-23T19:41:29
; FORMAT={-:-/ absolute / metric / decimal}
; #@! TF.CreationDate,2026-08-23T19:41:29+05:30
; #@! TF.GenerationSoftware,Kicad,Pcbnew,10.0.5
; #@! TF.FileFunction,Plated,1,2,PTH
FMAT,2
METRIC
; #@! TA.AperFunction,Plated,PTH,ComponentDrill
T1C0.800
; #@! TA.AperFunction,Plated,PTH,ComponentDrill
T2C0.900
; #@! TA.AperFunction,Plated,PTH,ComponentDrill
T3C1.000
; #@! TA.AperFunction,Plated,PTH,ComponentDrill
T4C1.800
%
G90
G05
T1
X135.0Y-69.69
X135.0Y-77.31
X135.0Y-83.19
X135.0Y-90.81
X138.69Y-91.5
X139.19Y-79.19
X139.19Y-81.73
X139.19Y-84.27
X139.19Y-86.81
X146.31Y-91.5
X146.81Y-79.19
X146.81Y-81.73
X146.81Y-84.27
X146.81Y-86.81
X150.69Y-79.0
X153.0Y-86.5
X153.0Y-91.5
X158.31Y-79.0
T2
X129.23Y-88.0
X131.77Y-88.0
T3
X128.885Y-80.735
X128.885Y-83.275
X144.975Y-70.5
X147.475Y-70.5
X149.975Y-70.5
X159.0Y-83.46
X159.0Y-86.0
X159.0Y-88.54
T4
G00X142.475Y-73.95
M15
G01X142.475Y-73.65
M16
G05
G00X152.475Y-73.95
M15
G01X152.475Y-73.65
M16
G05
M30
