%TF.GenerationSoftware,KiCad,Pcbnew,10.0.5*%
%TF.CreationDate,2026-08-23T19:39:02+05:30*%
%TF.ProjectId,sero tester,7365726f-2074-4657-9374-65722e6b6963,rev?*%
%TF.SameCoordinates,Original*%
%TF.FileFunction,Copper,L2,Bot*%
%TF.FilePolarity,Positive*%
%FSLAX46Y46*%
G04 Gerber Fmt 4.6, Leading zero omitted, Abs format (unit mm)*
G04 Created by KiCad (PCBNEW 10.0.5) date 2026-08-23 19:39:02*
%MOMM*%
%LPD*%
G01*
G04 APERTURE LIST*
G04 Aperture macros list*
%AMRoundRect*
0 Rectangle with rounded corners*
0 $1 Rounding radius*
0 $2 $3 $4 $5 $6 $7 $8 $9 X,Y pos of 4 corners*
0 Add a 4 corners polygon primitive as box body*
4,1,4,$2,$3,$4,$5,$6,$7,$8,$9,$2,$3,0*
0 Add four circle primitives for the rounded corners*
1,1,$1+$1,$2,$3*
1,1,$1+$1,$4,$5*
1,1,$1+$1,$6,$7*
1,1,$1+$1,$8,$9*
0 Add four rect primitives between the rounded corners*
20,1,$1+$1,$2,$3,$4,$5,0*
20,1,$1+$1,$4,$5,$6,$7,0*
20,1,$1+$1,$6,$7,$8,$9,0*
20,1,$1+$1,$8,$9,$2,$3,0*%
G04 Aperture macros list end*
%TA.AperFunction,ComponentPad*%
%ADD10C,1.600000*%
%TD*%
%TA.AperFunction,ComponentPad*%
%ADD11R,1.700000X1.700000*%
%TD*%
%TA.AperFunction,ComponentPad*%
%ADD12C,1.700000*%
%TD*%
%TA.AperFunction,ComponentPad*%
%ADD13RoundRect,0.250000X-0.550000X0.550000X-0.550000X-0.550000X0.550000X-0.550000X0.550000X0.550000X0*%
%TD*%
%TA.AperFunction,ComponentPad*%
%ADD14R,1.800000X1.800000*%
%TD*%
%TA.AperFunction,ComponentPad*%
%ADD15C,1.800000*%
%TD*%
%TA.AperFunction,ComponentPad*%
%ADD16RoundRect,0.750000X0.750000X-1.250000X0.750000X1.250000X-0.750000X1.250000X-0.750000X-1.250000X0*%
%TD*%
%TA.AperFunction,ComponentPad*%
%ADD17RoundRect,0.250000X-0.550000X-0.550000X0.550000X-0.550000X0.550000X0.550000X-0.550000X0.550000X0*%
%TD*%
%TA.AperFunction,Conductor*%
%ADD18C,0.500000*%
%TD*%
G04 APERTURE END LIST*
D10*
%TO.P,R1,1*%
%TO.N,Net-(D3-K)*%
X146310000Y-91500000D03*
%TO.P,R1,2*%
%TO.N,Net-(D3-A)*%
X138690000Y-91500000D03*
%TD*%
D11*
%TO.P,J2,1,Pin_1_1*%
%TO.N,GND*%
X159000000Y-83460000D03*
D12*
%TO.P,J2,2,Pin_2_2*%
%TO.N,Net-(J1-Pin_1)*%
X159000000Y-86000000D03*
%TO.P,J2,3,Pin_3_3*%
%TO.N,Net-(J2-Pin_3)*%
X159000000Y-88540000D03*
%TD*%
D13*
%TO.P,D3,1,K_1*%
%TO.N,Net-(D3-K)*%
X135000000Y-83190000D03*
D10*
%TO.P,D3,2,A_2*%
%TO.N,Net-(D3-A)*%
X135000000Y-90810000D03*
%TD*%
D14*
%TO.P,RV1,1,1_1*%
%TO.N,Net-(R2-Pad1)*%
X149975000Y-70500000D03*
D15*
%TO.P,RV1,2,2_2*%
%TO.N,Net-(D3-A)*%
X147475000Y-70500000D03*
%TO.P,RV1,3,3_3*%
X144975000Y-70500000D03*
D16*
%TO.P,RV1,MP*%
%TO.N,N/C*%
X152475000Y-73800000D03*
X142475000Y-73800000D03*
%TD*%
D10*
%TO.P,C1,1*%
%TO.N,Net-(U1-THRES)*%
X153000000Y-91500000D03*
%TO.P,C1,2*%
%TO.N,GND*%
X153000000Y-86500000D03*
%TD*%
%TO.P,R2,1*%
%TO.N,Net-(R2-Pad1)*%
X150690000Y-79000000D03*
%TO.P,R2,2*%
%TO.N,Net-(J1-Pin_1)*%
X158310000Y-79000000D03*
%TD*%
%TO.P,R3,1*%
%TO.N,Net-(D1-A)*%
X135000000Y-77310000D03*
%TO.P,R3,2*%
%TO.N,Net-(J1-Pin_1)*%
X135000000Y-69690000D03*
%TD*%
D17*
%TO.P,U1,1,GND_1*%
%TO.N,GND*%
X139190000Y-79190000D03*
D10*
%TO.P,U1,2,TRIG_2*%
%TO.N,Net-(D3-K)*%
X139190000Y-81730000D03*
%TO.P,U1,3,OUT_3*%
%TO.N,Net-(J2-Pin_3)*%
X139190000Y-84270000D03*
%TO.P,U1,4,~{RST}_4*%
%TO.N,Net-(J1-Pin_1)*%
X139190000Y-86810000D03*
%TO.P,U1,5,CONT_5*%
%TO.N,unconnected-(U1-CONT-Pad5)*%
X146810000Y-86810000D03*
%TO.P,U1,6,THRES_6*%
%TO.N,Net-(U1-THRES)*%
X146810000Y-84270000D03*
%TO.P,U1,7,DISCH_7*%
%TO.N,Net-(D3-A)*%
X146810000Y-81730000D03*
%TO.P,U1,8,VCC_8*%
%TO.N,Net-(J1-Pin_1)*%
X146810000Y-79190000D03*
%TD*%
D14*
%TO.P,D1,1,K_1*%
%TO.N,GND*%
X129230000Y-88000000D03*
D15*
%TO.P,D1,2,A_2*%
%TO.N,Net-(D1-A)*%
X131770000Y-88000000D03*
%TD*%
D11*
%TO.P,J1,1,Pin_1_1*%
%TO.N,Net-(J1-Pin_1)*%
X128885000Y-83275000D03*
D12*
%TO.P,J1,2,Pin_2_2*%
%TO.N,GND*%
X128885000Y-80735000D03*
%TD*%
%TO.N,Net-(U1-THRES)*%
D18*
X153000000Y-90460000D02*
X146810000Y-84270000D01*
X153000000Y-91500000D02*
X153000000Y-90460000D01*
%TO.N,GND*%
X128885000Y-80735000D02*
X130430000Y-79190000D01*
X130430000Y-79190000D02*
X139190000Y-79190000D01*
%TO.N,Net-(D3-K)*%
X135000000Y-83190000D02*
X137730000Y-83190000D01*
X137730000Y-83190000D02*
X139190000Y-81730000D01*
%TO.N,Net-(D3-A)*%
X146810000Y-81730000D02*
X138690000Y-89850000D01*
X135000000Y-90810000D02*
X138000000Y-90810000D01*
X147475000Y-70500000D02*
X149000000Y-72025000D01*
X138000000Y-90810000D02*
X138690000Y-91500000D01*
X149000000Y-72025000D02*
X149000000Y-79540000D01*
X138690000Y-89850000D02*
X138690000Y-91500000D01*
X144975000Y-70500000D02*
X147475000Y-70500000D01*
X149000000Y-79540000D02*
X146810000Y-81730000D01*
%TO.N,Net-(J1-Pin_1)*%
X144440000Y-80440000D02*
X145000000Y-81000000D01*
X131720000Y-80440000D02*
X144440000Y-80440000D01*
X139190000Y-86810000D02*
X145000000Y-81000000D01*
X159000000Y-86000000D02*
X157700000Y-84700000D01*
X128885000Y-83275000D02*
X131720000Y-80440000D01*
X157700000Y-79610000D02*
X158310000Y-79000000D01*
X157700000Y-84700000D02*
X157700000Y-79610000D01*
X145000000Y-81000000D02*
X146810000Y-79190000D01*
%TO.N,Net-(R2-Pad1)*%
X150690000Y-75712058D02*
X150690000Y-79000000D01*
X149975000Y-74997058D02*
X150690000Y-75712058D01*
X149975000Y-70500000D02*
X149975000Y-74997058D01*
%TD*%
%TA.AperFunction,Conductor*%
%TO.N,GND*%
G36*
X156761210Y-67520185D02*
G01*
X156806965Y-67572989D01*
X156816909Y-67642147D01*
X156792547Y-67699986D01*
X156684333Y-67841013D01*
X156684322Y-67841029D01*
X156547892Y-68077331D01*
X156547887Y-68077342D01*
X156443467Y-68329433D01*
X156443464Y-68329443D01*
X156372840Y-68593018D01*
X156372837Y-68593031D01*
X156337223Y-68863551D01*
X156337222Y-68863568D01*
X156337222Y-69136431D01*
X156337223Y-69136448D01*
X156372837Y-69406968D01*
X156372838Y-69406973D01*
X156372839Y-69406979D01*
X156421246Y-69587636D01*
X156443464Y-69670556D01*
X156443467Y-69670566D01*
X156547887Y-69922657D01*
X156547892Y-69922668D01*
X156684322Y-70158970D01*
X156684333Y-70158986D01*
X156850441Y-70375463D01*
X156850447Y-70375470D01*
X157043390Y-70568413D01*
X157043396Y-70568418D01*
X157259883Y-70734534D01*
X157259890Y-70734538D01*
X157496192Y-70870968D01*
X157496197Y-70870970D01*
X157496200Y-70870972D01*
X157554735Y-70895218D01*
X157707455Y-70958477D01*
X157748304Y-70975397D01*
X158011882Y-71046022D01*
X158282423Y-71081639D01*
X158282430Y-71081639D01*
X158555292Y-71081639D01*
X158555299Y-71081639D01*
X158825840Y-71046022D01*
X159089418Y-70975397D01*
X159341522Y-70870972D01*
X159577839Y-70734534D01*
X159739847Y-70610221D01*
X159797547Y-70565947D01*
X159798238Y-70566847D01*
X159857109Y-70539530D01*
X159926326Y-70549054D01*
X159979407Y-70594488D01*
X159999498Y-70661407D01*
X159999500Y-70662159D01*
X159999500Y-81986000D01*
X159979815Y-82053039D01*
X159927011Y-82098794D01*
X159875500Y-82110000D01*
X159250000Y-82110000D01*
X159250000Y-83026988D01*
X159192993Y-82994075D01*
X159065826Y-82960000D01*
X158934174Y-82960000D01*
X158807007Y-82994075D01*
X158750000Y-83026988D01*
X158750000Y-82110000D01*
X158574500Y-82110000D01*
X158507461Y-82090315D01*
X158461706Y-82037511D01*
X158450500Y-81986000D01*
X158450500Y-80400363D01*
X158470185Y-80333324D01*
X158522989Y-80287569D01*
X158555103Y-80277890D01*
X158589072Y-80272509D01*
X158614534Y-80268477D01*
X158809219Y-80205220D01*
X158991610Y-80112287D01*
X159084590Y-80044732D01*
X159157213Y-79991971D01*
X159157215Y-79991968D01*
X159157219Y-79991966D01*
X159301966Y-79847219D01*
X159301968Y-79847215D01*
X159301971Y-79847213D01*
X159395599Y-79718343D01*
X159422287Y-79681610D01*
X159515220Y-79499219D01*
X159578477Y-79304534D01*
X159610500Y-79102352D01*
X159610500Y-78897648D01*
X159578477Y-78695466D01*
X159558532Y-78634083D01*
X159540465Y-78578477D01*
X159515220Y-78500781D01*
X159515218Y-78500778D01*
X159515218Y-78500776D01*
X159434717Y-78342786D01*
X159422287Y-78318390D01*
X159410354Y-78301966D01*
X159301971Y-78152786D01*
X159157213Y-78008028D01*
X158991613Y-77887715D01*
X158991612Y-77887714D01*
X158991610Y-77887713D01*
X158934653Y-77858691D01*
X158809223Y-77794781D01*
X158614534Y-77731522D01*
X158439995Y-77703878D01*
X158412352Y-77699500D01*
X158207648Y-77699500D01*
X158183329Y-77703351D01*
X158005465Y-77731522D01*
X157810776Y-77794781D01*
X157628386Y-77887715D01*
X157462786Y-78008028D01*
X157318028Y-78152786D01*
X157197715Y-78318386D01*
X157104781Y-78500776D01*
X157041522Y-78695465D01*
X157009500Y-78897648D01*
X157009500Y-79102351D01*
X157028492Y-79222263D01*
X157020581Y-79289110D01*
X156978342Y-79391087D01*
X156978340Y-79391093D01*
X156949500Y-79536079D01*
X156949500Y-79536082D01*
X156949500Y-84773918D01*
X156949500Y-84773920D01*
X156949499Y-84773920D01*
X156978340Y-84918907D01*
X156978343Y-84918917D01*
X157034914Y-85055492D01*
X157067812Y-85104727D01*
X157067813Y-85104730D01*
X157117046Y-85178414D01*
X157117052Y-85178421D01*
X157629824Y-85691191D01*
X157663309Y-85752514D01*
X157664616Y-85798270D01*
X157649500Y-85893707D01*
X157649500Y-85893713D01*
X157649500Y-86106287D01*
X157682754Y-86316243D01*
X157744236Y-86505465D01*
X157748444Y-86518414D01*
X157844951Y-86707820D01*
X157969890Y-86879786D01*
X158120213Y-87030109D01*
X158292182Y-87155050D01*
X158300946Y-87159516D01*
X158351742Y-87207491D01*
X158368536Y-87275312D01*
X158345998Y-87341447D01*
X158300946Y-87380484D01*
X158292182Y-87384949D01*
X158120213Y-87509890D01*
X157969890Y-87660213D01*
X157844951Y-87832179D01*
X157748444Y-88021585D01*
X157682753Y-88223760D01*
X157666251Y-88327951D01*
X157649500Y-88433713D01*
X157649500Y-88646287D01*
X157682754Y-88856243D01*
X157735209Y-89017683D01*
X157748444Y-89058414D01*
X157844951Y-89247820D01*
X157969890Y-89419786D01*
X158120213Y-89570109D01*
X158292179Y-89695048D01*
X158292181Y-89695049D01*
X158292184Y-89695051D01*
X158481588Y-89791557D01*
X158683757Y-89857246D01*
X158893713Y-89890500D01*
X158893714Y-89890500D01*
X159106286Y-89890500D01*
X159106287Y-89890500D01*
X159316243Y-89857246D01*
X159518412Y-89791557D01*
X159707816Y-89695051D01*
X159802615Y-89626176D01*
X159868421Y-89602696D01*
X159936475Y-89618521D01*
X159985170Y-89668627D01*
X159999500Y-89726494D01*
X159999500Y-90694171D01*
X159979815Y-90761210D01*
X159927011Y-90806965D01*
X159857853Y-90816909D01*
X159800014Y-90792547D01*
X159658986Y-90684333D01*
X159658984Y-90684331D01*
X159658978Y-90684327D01*
X159658973Y-90684324D01*
X159658970Y-90684322D01*
X159422668Y-90547892D01*
X159422657Y-90547887D01*
X159170566Y-90443467D01*
X159170559Y-90443465D01*
X159170557Y-90443464D01*
X158906979Y-90372839D01*
X158906973Y-90372838D01*
X158906968Y-90372837D01*
X158636448Y-90337223D01*
X158636443Y-90337222D01*
X158636438Y-90337222D01*
X158363562Y-90337222D01*
X158363556Y-90337222D01*
X158363551Y-90337223D01*
X158093031Y-90372837D01*
X158093024Y-90372838D01*
X158093021Y-90372839D01*
X157923126Y-90418362D01*
X157829443Y-90443464D01*
X157829433Y-90443467D01*
X157577342Y-90547887D01*
X157577331Y-90547892D01*
X157341029Y-90684322D01*
X157341013Y-90684333D01*
X157124536Y-90850441D01*
X157124529Y-90850447D01*
X156931586Y-91043390D01*
X156931580Y-91043397D01*
X156765472Y-91259874D01*
X156765461Y-91259890D01*
X156629031Y-91496192D01*
X156629026Y-91496203D01*
X156524606Y-91748294D01*
X156524603Y-91748304D01*
X156453979Y-92011879D01*
X156453976Y-92011892D01*
X156418362Y-92282412D01*
X156418361Y-92282429D01*
X156418361Y-92555292D01*
X156418362Y-92555309D01*
X156453976Y-92825829D01*
X156453977Y-92825834D01*
X156453978Y-92825840D01*
X156453979Y-92825842D01*
X156524603Y-93089417D01*
X156524606Y-93089427D01*
X156629026Y-93341518D01*
X156629031Y-93341529D01*
X156765461Y-93577831D01*
X156765472Y-93577847D01*
X156934053Y-93797547D01*
X156933156Y-93798234D01*
X156960473Y-93857137D01*
X156950933Y-93926352D01*
X156905487Y-93979422D01*
X156838564Y-93999498D01*
X156837840Y-93999500D01*
X131305829Y-93999500D01*
X131238790Y-93979815D01*
X131193035Y-93927011D01*
X131183091Y-93857853D01*
X131207453Y-93800014D01*
X131248291Y-93746790D01*
X131315673Y-93658978D01*
X131452111Y-93422661D01*
X131556536Y-93170557D01*
X131627161Y-92906979D01*
X131662778Y-92636438D01*
X131662778Y-92363562D01*
X131627161Y-92093021D01*
X131556536Y-91829443D01*
X131452111Y-91577339D01*
X131452109Y-91577336D01*
X131452107Y-91577331D01*
X131315677Y-91341029D01*
X131315673Y-91341022D01*
X131203984Y-91195466D01*
X131149558Y-91124536D01*
X131149552Y-91124529D01*
X130956609Y-90931586D01*
X130956602Y-90931580D01*
X130740125Y-90765472D01*
X130740123Y-90765470D01*
X130740117Y-90765466D01*
X130740112Y-90765463D01*
X130740109Y-90765461D01*
X130503807Y-90629031D01*
X130503796Y-90629026D01*
X130251705Y-90524606D01*
X130251698Y-90524604D01*
X130251696Y-90524603D01*
X129988118Y-90453978D01*
X129988112Y-90453977D01*
X129988107Y-90453976D01*
X129717587Y-90418362D01*
X129717582Y-90418361D01*
X129717577Y-90418361D01*
X129444701Y-90418361D01*
X129444695Y-90418361D01*
X129444690Y-90418362D01*
X129174170Y-90453976D01*
X129174163Y-90453977D01*
X129174160Y-90453978D01*
X128982007Y-90505465D01*
X128910582Y-90524603D01*
X128910572Y-90524606D01*
X128658481Y-90629026D01*
X128658470Y-90629031D01*
X128422168Y-90765461D01*
X128422152Y-90765472D01*
X128202453Y-90934053D01*
X128201765Y-90933156D01*
X128142863Y-90960473D01*
X128073648Y-90950933D01*
X128020578Y-90905487D01*
X128000502Y-90838564D01*
X128000500Y-90837840D01*
X128000500Y-89489344D01*
X128020185Y-89422305D01*
X128072989Y-89376550D01*
X128142147Y-89366606D01*
X128167834Y-89373162D01*
X128222623Y-89393597D01*
X128222627Y-89393598D01*
X128282155Y-89399999D01*
X128282172Y-89400000D01*
X128980000Y-89400000D01*
X128980000Y-88375277D01*
X129056306Y-88419333D01*
X129170756Y-88450000D01*
X129289244Y-88450000D01*
X129403694Y-88419333D01*
X129480000Y-88375277D01*
X129480000Y-89400000D01*
X130177828Y-89400000D01*
X130177844Y-89399999D01*
X130237372Y-89393598D01*
X130237379Y-89393596D01*
X130372086Y-89343354D01*
X130372093Y-89343350D01*
X130487187Y-89257190D01*
X130487190Y-89257187D01*
X130573350Y-89142093D01*
X130573354Y-89142086D01*
X130603213Y-89062031D01*
X130645084Y-89006097D01*
X130710548Y-88981680D01*
X130778821Y-88996531D01*
X130807076Y-89017683D01*
X130857636Y-89068243D01*
X130857641Y-89068247D01*
X131013192Y-89181260D01*
X131035978Y-89197815D01*
X131152501Y-89257187D01*
X131232393Y-89297895D01*
X131232396Y-89297896D01*
X131337221Y-89331955D01*
X131442049Y-89366015D01*
X131659778Y-89400500D01*
X131659779Y-89400500D01*
X131880221Y-89400500D01*
X131880222Y-89400500D01*
X132097951Y-89366015D01*
X132307606Y-89297895D01*
X132504022Y-89197815D01*
X132682365Y-89068242D01*
X132838242Y-88912365D01*
X132967815Y-88734022D01*
X133067895Y-88537606D01*
X133136015Y-88327951D01*
X133170500Y-88110222D01*
X133170500Y-87889778D01*
X133136015Y-87672049D01*
X133101955Y-87567221D01*
X133067896Y-87462396D01*
X133067895Y-87462393D01*
X133026159Y-87380484D01*
X132967815Y-87265978D01*
X132906329Y-87181349D01*
X132838247Y-87087641D01*
X132838243Y-87087636D01*
X132682363Y-86931756D01*
X132682358Y-86931752D01*
X132504025Y-86802187D01*
X132504024Y-86802186D01*
X132504022Y-86802185D01*
X132392981Y-86745606D01*
X132307606Y-86702104D01*
X132307603Y-86702103D01*
X132097952Y-86633985D01*
X131989086Y-86616742D01*
X131880222Y-86599500D01*
X131659778Y-86599500D01*
X131587201Y-86610995D01*
X131442047Y-86633985D01*
X131232396Y-86702103D01*
X131232393Y-86702104D01*
X131035974Y-86802187D01*
X130857641Y-86931752D01*
X130857636Y-86931756D01*
X130807075Y-86982317D01*
X130745752Y-87015801D01*
X130676060Y-87010816D01*
X130620127Y-86968945D01*
X130603213Y-86937968D01*
X130573354Y-86857913D01*
X130573350Y-86857906D01*
X130487190Y-86742812D01*
X130487187Y-86742809D01*
X130372093Y-86656649D01*
X130372086Y-86656645D01*
X130237379Y-86606403D01*
X130237372Y-86606401D01*
X130177844Y-86600000D01*
X129480000Y-86600000D01*
X129480000Y-87624722D01*
X129403694Y-87580667D01*
X129289244Y-87550000D01*
X129170756Y-87550000D01*
X129056306Y-87580667D01*
X128980000Y-87624722D01*
X128980000Y-86600000D01*
X128282155Y-86600000D01*
X128222627Y-86606401D01*
X128222616Y-86606403D01*
X128167832Y-86626837D01*
X128098141Y-86631821D01*
X128036818Y-86598335D01*
X128003333Y-86537012D01*
X128000500Y-86510655D01*
X128000500Y-84749499D01*
X128020185Y-84682460D01*
X128072989Y-84636705D01*
X128124500Y-84625499D01*
X129782871Y-84625499D01*
X129782872Y-84625499D01*
X129842483Y-84619091D01*
X129977331Y-84568796D01*
X130092546Y-84482546D01*
X130178796Y-84367331D01*
X130229091Y-84232483D01*
X130235500Y-84172873D01*
X130235499Y-83037228D01*
X130255184Y-82970190D01*
X130271813Y-82949553D01*
X131994548Y-81226819D01*
X132055871Y-81193334D01*
X132082229Y-81190500D01*
X137827196Y-81190500D01*
X137894235Y-81210185D01*
X137939990Y-81262989D01*
X137949934Y-81332147D01*
X137945127Y-81352818D01*
X137921523Y-81425461D01*
X137921523Y-81425464D01*
X137889500Y-81627648D01*
X137889500Y-81832351D01*
X137898318Y-81888025D01*
X137889364Y-81957318D01*
X137863526Y-81995104D01*
X137455451Y-82403181D01*
X137394128Y-82436666D01*
X137367770Y-82439500D01*
X136363733Y-82439500D01*
X136296694Y-82419815D01*
X136250939Y-82367011D01*
X136246028Y-82354506D01*
X136241495Y-82340829D01*
X136234814Y-82320666D01*
X136142712Y-82171344D01*
X136018656Y-82047288D01*
X135869334Y-81955186D01*
X135702797Y-81900001D01*
X135702795Y-81900000D01*
X135600010Y-81889500D01*
X134399998Y-81889500D01*
X134399981Y-81889501D01*
X134297203Y-81900000D01*
X134297200Y-81900001D01*
X134130668Y-81955185D01*
X134130663Y-81955187D01*
X133981342Y-82047289D01*
X133857289Y-82171342D01*
X133765187Y-82320663D01*
X133765185Y-82320668D01*
X133749829Y-82367011D01*
X133710001Y-82487203D01*
X133710001Y-82487204D01*
X133710000Y-82487204D01*
X133699500Y-82589983D01*
X133699500Y-83790001D01*
X133699501Y-83790018D01*
X133710000Y-83892796D01*
X133710001Y-83892799D01*
X133765185Y-84059331D01*
X133765187Y-84059336D01*
X133779257Y-84082147D01*
X133857288Y-84208656D01*
X133981344Y-84332712D01*
X134130666Y-84424814D01*
X134297203Y-84479999D01*
X134399991Y-84490500D01*
X135600008Y-84490499D01*
X135702797Y-84479999D01*
X135869334Y-84424814D01*
X136018656Y-84332712D01*
X136142712Y-84208656D01*
X136234814Y-84059334D01*
X136246028Y-84025494D01*
X136285801Y-83968050D01*
X136350317Y-83941228D01*
X136363733Y-83940500D01*
X137780292Y-83940500D01*
X137847331Y-83960185D01*
X137893086Y-84012989D01*
X137903030Y-84082147D01*
X137902765Y-84083898D01*
X137889500Y-84167648D01*
X137889500Y-84372351D01*
X137921522Y-84574534D01*
X137984781Y-84769223D01*
X138077715Y-84951613D01*
X138198028Y-85117213D01*
X138342786Y-85261971D01*
X138497749Y-85374556D01*
X138508390Y-85382287D01*
X138599840Y-85428883D01*
X138601080Y-85429515D01*
X138651876Y-85477490D01*
X138668671Y-85545311D01*
X138646134Y-85611446D01*
X138601080Y-85650485D01*
X138508386Y-85697715D01*
X138342786Y-85818028D01*
X138198028Y-85962786D01*
X138077715Y-86128386D01*
X137984781Y-86310776D01*
X137921522Y-86505465D01*
X137889500Y-86707648D01*
X137889500Y-86912351D01*
X137921522Y-87114534D01*
X137984781Y-87309223D01*
X138077715Y-87491613D01*
X138198028Y-87657213D01*
X138342786Y-87801971D01*
X138497749Y-87914556D01*
X138508390Y-87922287D01*
X138624607Y-87981503D01*
X138690776Y-88015218D01*
X138690778Y-88015218D01*
X138690781Y-88015220D01*
X138885466Y-88078477D01*
X139087648Y-88110500D01*
X139087652Y-88110500D01*
X139089414Y-88110779D01*
X139152548Y-88140708D01*
X139189480Y-88200019D01*
X139188482Y-88269882D01*
X139157697Y-88320933D01*
X138107050Y-89371581D01*
X138107044Y-89371589D01*
X138070266Y-89426631D01*
X138070267Y-89426632D01*
X138024913Y-89494508D01*
X137968343Y-89631082D01*
X137968340Y-89631092D01*
X137939500Y-89776079D01*
X137939500Y-89935500D01*
X137919815Y-90002539D01*
X137867011Y-90048294D01*
X137815500Y-90059500D01*
X136125418Y-90059500D01*
X136058379Y-90039815D01*
X136025100Y-90008385D01*
X135991971Y-89962787D01*
X135991967Y-89962782D01*
X135847213Y-89818028D01*
X135681613Y-89697715D01*
X135681612Y-89697714D01*
X135681610Y-89697713D01*
X135624526Y-89668627D01*
X135499223Y-89604781D01*
X135304534Y-89541522D01*
X135129995Y-89513878D01*
X135102352Y-89509500D01*
X134897648Y-89509500D01*
X134873329Y-89513351D01*
X134695465Y-89541522D01*
X134500776Y-89604781D01*
X134318386Y-89697715D01*
X134152786Y-89818028D01*
X134008028Y-89962786D01*
X133887715Y-90128386D01*
X133794781Y-90310776D01*
X133731522Y-90505465D01*
X133703194Y-90684327D01*
X133699500Y-90707648D01*
X133699500Y-90912352D01*
X133702546Y-90931582D01*
X133731522Y-91114534D01*
X133794781Y-91309223D01*
X133887715Y-91491613D01*
X134008028Y-91657213D01*
X134152786Y-91801971D01*
X134307749Y-91914556D01*
X134318390Y-91922287D01*
X134434607Y-91981503D01*
X134500776Y-92015218D01*
X134500778Y-92015218D01*
X134500781Y-92015220D01*
X134605137Y-92049127D01*
X134695465Y-92078477D01*
X134787273Y-92093018D01*
X134897648Y-92110500D01*
X134897649Y-92110500D01*
X135102351Y-92110500D01*
X135102352Y-92110500D01*
X135304534Y-92078477D01*
X135499219Y-92015220D01*
X135681610Y-91922287D01*
X135809414Y-91829433D01*
X135847213Y-91801971D01*
X135847215Y-91801968D01*
X135847219Y-91801966D01*
X135991966Y-91657219D01*
X136009570Y-91632989D01*
X136025100Y-91611615D01*
X136080429Y-91568949D01*
X136125418Y-91560500D01*
X137276966Y-91560500D01*
X137344005Y-91580185D01*
X137389760Y-91632989D01*
X137399438Y-91665100D01*
X137412615Y-91748294D01*
X137421523Y-91804534D01*
X137484781Y-91999223D01*
X137548691Y-92124653D01*
X137570060Y-92166591D01*
X137577715Y-92181613D01*
X137698028Y-92347213D01*
X137842786Y-92491971D01*
X137997749Y-92604556D01*
X138008390Y-92612287D01*
X138123878Y-92671131D01*
X138190776Y-92705218D01*
X138190778Y-92705218D01*
X138190781Y-92705220D01*
X138295137Y-92739127D01*
X138385465Y-92768477D01*
X138486557Y-92784488D01*
X138587648Y-92800500D01*
X138587649Y-92800500D01*
X138792351Y-92800500D01*
X138792352Y-92800500D01*
X138994534Y-92768477D01*
X139189219Y-92705220D01*
X139371610Y-92612287D01*
X139464590Y-92544732D01*
X139537213Y-92491971D01*
X139537215Y-92491968D01*
X139537219Y-92491966D01*
X139681966Y-92347219D01*
X139681968Y-92347215D01*
X139681971Y-92347213D01*
X139754248Y-92247730D01*
X139802287Y-92181610D01*
X139895220Y-91999219D01*
X139958477Y-91804534D01*
X139990500Y-91602352D01*
X139990500Y-91397648D01*
X145009500Y-91397648D01*
X145009500Y-91602351D01*
X145041522Y-91804534D01*
X145104781Y-91999223D01*
X145168691Y-92124653D01*
X145190060Y-92166591D01*
X145197715Y-92181613D01*
X145318028Y-92347213D01*
X145462786Y-92491971D01*
X145617749Y-92604556D01*
X145628390Y-92612287D01*
X145743878Y-92671131D01*
X145810776Y-92705218D01*
X145810778Y-92705218D01*
X145810781Y-92705220D01*
X145915137Y-92739127D01*
X146005465Y-92768477D01*
X146106557Y-92784488D01*
X146207648Y-92800500D01*
X146207649Y-92800500D01*
X146412351Y-92800500D01*
X146412352Y-92800500D01*
X146614534Y-92768477D01*
X146809219Y-92705220D01*
X146991610Y-92612287D01*
X147084590Y-92544732D01*
X147157213Y-92491971D01*
X147157215Y-92491968D01*
X147157219Y-92491966D01*
X147301966Y-92347219D01*
X147301968Y-92347215D01*
X147301971Y-92347213D01*
X147374248Y-92247730D01*
X147422287Y-92181610D01*
X147515220Y-91999219D01*
X147578477Y-91804534D01*
X147610500Y-91602352D01*
X147610500Y-91397648D01*
X147578477Y-91195466D01*
X147555430Y-91124536D01*
X147529066Y-91043396D01*
X147515220Y-91000781D01*
X147515218Y-91000778D01*
X147515218Y-91000776D01*
X147470163Y-90912352D01*
X147422287Y-90818390D01*
X147403511Y-90792547D01*
X147301971Y-90652786D01*
X147157213Y-90508028D01*
X146991613Y-90387715D01*
X146991612Y-90387714D01*
X146991610Y-90387713D01*
X146934653Y-90358691D01*
X146809223Y-90294781D01*
X146614534Y-90231522D01*
X146439995Y-90203878D01*
X146412352Y-90199500D01*
X146207648Y-90199500D01*
X146183329Y-90203351D01*
X146005465Y-90231522D01*
X145810776Y-90294781D01*
X145628386Y-90387715D01*
X145462786Y-90508028D01*
X145318028Y-90652786D01*
X145197715Y-90818386D01*
X145104781Y-91000776D01*
X145041522Y-91195465D01*
X145009500Y-91397648D01*
X139990500Y-91397648D01*
X139958477Y-91195466D01*
X139935430Y-91124536D01*
X139909066Y-91043396D01*
X139895220Y-91000781D01*
X139895218Y-91000778D01*
X139895218Y-91000776D01*
X139850163Y-90912352D01*
X139802287Y-90818390D01*
X139783511Y-90792547D01*
X139681971Y-90652786D01*
X139537217Y-90508032D01*
X139537212Y-90508028D01*
X139491615Y-90474900D01*
X139448949Y-90419571D01*
X139440500Y-90374582D01*
X139440500Y-90212228D01*
X139460185Y-90145189D01*
X139476814Y-90124552D01*
X145299067Y-84302298D01*
X145360388Y-84268815D01*
X145430080Y-84273799D01*
X145486013Y-84315671D01*
X145509219Y-84370582D01*
X145541523Y-84574535D01*
X145604781Y-84769223D01*
X145697715Y-84951613D01*
X145818028Y-85117213D01*
X145962786Y-85261971D01*
X146117749Y-85374556D01*
X146128390Y-85382287D01*
X146219840Y-85428883D01*
X146221080Y-85429515D01*
X146271876Y-85477490D01*
X146288671Y-85545311D01*
X146266134Y-85611446D01*
X146221080Y-85650485D01*
X146128386Y-85697715D01*
X145962786Y-85818028D01*
X145818028Y-85962786D01*
X145697715Y-86128386D01*
X145604781Y-86310776D01*
X145541522Y-86505465D01*
X145509500Y-86707648D01*
X145509500Y-86912351D01*
X145541522Y-87114534D01*
X145604781Y-87309223D01*
X145697715Y-87491613D01*
X145818028Y-87657213D01*
X145962786Y-87801971D01*
X146117749Y-87914556D01*
X146128390Y-87922287D01*
X146244607Y-87981503D01*
X146310776Y-88015218D01*
X146310778Y-88015218D01*
X146310781Y-88015220D01*
X146415137Y-88049127D01*
X146505465Y-88078477D01*
X146606557Y-88094488D01*
X146707648Y-88110500D01*
X146707649Y-88110500D01*
X146912351Y-88110500D01*
X146912352Y-88110500D01*
X147114534Y-88078477D01*
X147309219Y-88015220D01*
X147491610Y-87922287D01*
X147584590Y-87854732D01*
X147657213Y-87801971D01*
X147657215Y-87801968D01*
X147657219Y-87801966D01*
X147801966Y-87657219D01*
X147801968Y-87657215D01*
X147801971Y-87657213D01*
X147858451Y-87579474D01*
X147922287Y-87491610D01*
X148015220Y-87309219D01*
X148078477Y-87114534D01*
X148110500Y-86912352D01*
X148110500Y-86912345D01*
X148110779Y-86910584D01*
X148140708Y-86847450D01*
X148200019Y-86810518D01*
X148269882Y-86811516D01*
X148320933Y-86842301D01*
X151985066Y-90506434D01*
X152018551Y-90567757D01*
X152013567Y-90637449D01*
X151997703Y-90667000D01*
X151887715Y-90818386D01*
X151794781Y-91000776D01*
X151731522Y-91195465D01*
X151699500Y-91397648D01*
X151699500Y-91602351D01*
X151731522Y-91804534D01*
X151794781Y-91999223D01*
X151858691Y-92124653D01*
X151880060Y-92166591D01*
X151887715Y-92181613D01*
X152008028Y-92347213D01*
X152152786Y-92491971D01*
X152307749Y-92604556D01*
X152318390Y-92612287D01*
X152433878Y-92671131D01*
X152500776Y-92705218D01*
X152500778Y-92705218D01*
X152500781Y-92705220D01*
X152605137Y-92739127D01*
X152695465Y-92768477D01*
X152796557Y-92784488D01*
X152897648Y-92800500D01*
X152897649Y-92800500D01*
X153102351Y-92800500D01*
X153102352Y-92800500D01*
X153304534Y-92768477D01*
X153499219Y-92705220D01*
X153681610Y-92612287D01*
X153774590Y-92544732D01*
X153847213Y-92491971D01*
X153847215Y-92491968D01*
X153847219Y-92491966D01*
X153991966Y-92347219D01*
X153991968Y-92347215D01*
X153991971Y-92347213D01*
X154064248Y-92247730D01*
X154112287Y-92181610D01*
X154205220Y-91999219D01*
X154268477Y-91804534D01*
X154300500Y-91602352D01*
X154300500Y-91397648D01*
X154268477Y-91195466D01*
X154245430Y-91124536D01*
X154219066Y-91043396D01*
X154205220Y-91000781D01*
X154205218Y-91000778D01*
X154205218Y-91000776D01*
X154160163Y-90912352D01*
X154112287Y-90818390D01*
X154093511Y-90792547D01*
X153991971Y-90652786D01*
X153847217Y-90508032D01*
X153847212Y-90508028D01*
X153801041Y-90474483D01*
X153758375Y-90419154D01*
X153751886Y-90392017D01*
X153751689Y-90392057D01*
X153750663Y-90386902D01*
X153750522Y-90386310D01*
X153750500Y-90386092D01*
X153750500Y-90386082D01*
X153721658Y-90241087D01*
X153721656Y-90241082D01*
X153665086Y-90104508D01*
X153603266Y-90011987D01*
X153603266Y-90011986D01*
X153603264Y-90011985D01*
X153582952Y-89981584D01*
X149999050Y-86397682D01*
X151700000Y-86397682D01*
X151700000Y-86602317D01*
X151732009Y-86804417D01*
X151795244Y-86999031D01*
X151888141Y-87181350D01*
X151888147Y-87181359D01*
X151920523Y-87225921D01*
X151920524Y-87225922D01*
X152600000Y-86546446D01*
X152600000Y-86552661D01*
X152627259Y-86654394D01*
X152679920Y-86745606D01*
X152754394Y-86820080D01*
X152845606Y-86872741D01*
X152947339Y-86900000D01*
X152953553Y-86900000D01*
X152274076Y-87579474D01*
X152318650Y-87611859D01*
X152500968Y-87704755D01*
X152695582Y-87767990D01*
X152897683Y-87800000D01*
X153102317Y-87800000D01*
X153304417Y-87767990D01*
X153499031Y-87704755D01*
X153681349Y-87611859D01*
X153725921Y-87579474D01*
X153046447Y-86900000D01*
X153052661Y-86900000D01*
X153154394Y-86872741D01*
X153245606Y-86820080D01*
X153320080Y-86745606D01*
X153372741Y-86654394D01*
X153400000Y-86552661D01*
X153400000Y-86546447D01*
X154079474Y-87225921D01*
X154111859Y-87181349D01*
X154204755Y-86999031D01*
X154267990Y-86804417D01*
X154300000Y-86602317D01*
X154300000Y-86397682D01*
X154267990Y-86195582D01*
X154204755Y-86000968D01*
X154111859Y-85818650D01*
X154079474Y-85774077D01*
X154079474Y-85774076D01*
X153400000Y-86453551D01*
X153400000Y-86447339D01*
X153372741Y-86345606D01*
X153320080Y-86254394D01*
X153245606Y-86179920D01*
X153154394Y-86127259D01*
X153052661Y-86100000D01*
X153046446Y-86100000D01*
X153725922Y-85420524D01*
X153725921Y-85420523D01*
X153681359Y-85388147D01*
X153681350Y-85388141D01*
X153499031Y-85295244D01*
X153304417Y-85232009D01*
X153102317Y-85200000D01*
X152897683Y-85200000D01*
X152695582Y-85232009D01*
X152500968Y-85295244D01*
X152318644Y-85388143D01*
X152274077Y-85420523D01*
X152274077Y-85420524D01*
X152953554Y-86100000D01*
X152947339Y-86100000D01*
X152845606Y-86127259D01*
X152754394Y-86179920D01*
X152679920Y-86254394D01*
X152627259Y-86345606D01*
X152600000Y-86447339D01*
X152600000Y-86453553D01*
X151920524Y-85774077D01*
X151920523Y-85774077D01*
X151888143Y-85818644D01*
X151795244Y-86000968D01*
X151732009Y-86195582D01*
X151700000Y-86397682D01*
X149999050Y-86397682D01*
X148136473Y-84535105D01*
X148102988Y-84473782D01*
X148101681Y-84428027D01*
X148110500Y-84372352D01*
X148110500Y-84167648D01*
X148093345Y-84059336D01*
X148078477Y-83965465D01*
X148015218Y-83770776D01*
X147981503Y-83704607D01*
X147922287Y-83588390D01*
X147876832Y-83525826D01*
X147801971Y-83422786D01*
X147657213Y-83278028D01*
X147491614Y-83157715D01*
X147482346Y-83152993D01*
X147398917Y-83110483D01*
X147348123Y-83062511D01*
X147331328Y-82994690D01*
X147353865Y-82928555D01*
X147398917Y-82889516D01*
X147491610Y-82842287D01*
X147512770Y-82826913D01*
X147657213Y-82721971D01*
X147657215Y-82721968D01*
X147657219Y-82721966D01*
X147801966Y-82577219D01*
X147801968Y-82577215D01*
X147801971Y-82577213D01*
X147867366Y-82487203D01*
X147922287Y-82411610D01*
X148015220Y-82229219D01*
X148078477Y-82034534D01*
X148110500Y-81832352D01*
X148110500Y-81627648D01*
X148101681Y-81571971D01*
X148110635Y-81502680D01*
X148136470Y-81464896D01*
X149582952Y-80018416D01*
X149613674Y-79972434D01*
X149667284Y-79927629D01*
X149736609Y-79918920D01*
X149799637Y-79949073D01*
X149804458Y-79953643D01*
X149842786Y-79991971D01*
X149997749Y-80104556D01*
X150008390Y-80112287D01*
X150124607Y-80171503D01*
X150190776Y-80205218D01*
X150190778Y-80205218D01*
X150190781Y-80205220D01*
X150295137Y-80239127D01*
X150385465Y-80268477D01*
X150444896Y-80277890D01*
X150587648Y-80300500D01*
X150587649Y-80300500D01*
X150792351Y-80300500D01*
X150792352Y-80300500D01*
X150994534Y-80268477D01*
X151189219Y-80205220D01*
X151371610Y-80112287D01*
X151464590Y-80044732D01*
X151537213Y-79991971D01*
X151537215Y-79991968D01*
X151537219Y-79991966D01*
X151681966Y-79847219D01*
X151681968Y-79847215D01*
X151681971Y-79847213D01*
X151775599Y-79718343D01*
X151802287Y-79681610D01*
X151895220Y-79499219D01*
X151958477Y-79304534D01*
X151990500Y-79102352D01*
X151990500Y-78897648D01*
X151958477Y-78695466D01*
X151938532Y-78634083D01*
X151920465Y-78578477D01*
X151895220Y-78500781D01*
X151895218Y-78500778D01*
X151895218Y-78500776D01*
X151814717Y-78342786D01*
X151802287Y-78318390D01*
X151790354Y-78301966D01*
X151681971Y-78152786D01*
X151537217Y-78008032D01*
X151537212Y-78008028D01*
X151491615Y-77974900D01*
X151448949Y-77919571D01*
X151440500Y-77874582D01*
X151440500Y-76417305D01*
X151460185Y-76350266D01*
X151512989Y-76304511D01*
X151574225Y-76293687D01*
X151660783Y-76300500D01*
X153289216Y-76300499D01*
X153421412Y-76290096D01*
X153639683Y-76235096D01*
X153844626Y-76142007D01*
X154029654Y-76013819D01*
X154188819Y-75854654D01*
X154317007Y-75669626D01*
X154410096Y-75464683D01*
X154465096Y-75246412D01*
X154475500Y-75114217D01*
X154475499Y-72485784D01*
X154465096Y-72353588D01*
X154410096Y-72135317D01*
X154317007Y-71930374D01*
X154272418Y-71866014D01*
X154188825Y-71745354D01*
X154188822Y-71745350D01*
X154188819Y-71745346D01*
X154029654Y-71586181D01*
X154029650Y-71586178D01*
X154029645Y-71586174D01*
X153844632Y-71457997D01*
X153844630Y-71457995D01*
X153844626Y-71457993D01*
X153744172Y-71412365D01*
X153639681Y-71364903D01*
X153639678Y-71364902D01*
X153421420Y-71309905D01*
X153421413Y-71309904D01*
X153377347Y-71306436D01*
X153289217Y-71299500D01*
X153289215Y-71299500D01*
X151660791Y-71299500D01*
X151660776Y-71299501D01*
X151528582Y-71309904D01*
X151523433Y-71310750D01*
X151523203Y-71309348D01*
X151459955Y-71306883D01*
X151402693Y-71266847D01*
X151376167Y-71202208D01*
X151375499Y-71189357D01*
X151375499Y-69552129D01*
X151375498Y-69552123D01*
X151375343Y-69550683D01*
X151369091Y-69492517D01*
X151354275Y-69452794D01*
X151318797Y-69357671D01*
X151318793Y-69357664D01*
X151232547Y-69242455D01*
X151232544Y-69242452D01*
X151117335Y-69156206D01*
X151117328Y-69156202D01*
X150982482Y-69105908D01*
X150982483Y-69105908D01*
X150922883Y-69099501D01*
X150922881Y-69099500D01*
X150922873Y-69099500D01*
X150922864Y-69099500D01*
X149027129Y-69099500D01*
X149027123Y-69099501D01*
X148967516Y-69105908D01*
X148832671Y-69156202D01*
X148832664Y-69156206D01*
X148717455Y-69242452D01*
X148717452Y-69242455D01*
X148631206Y-69357664D01*
X148631201Y-69357674D01*
X148612263Y-69408448D01*
X148570391Y-69464381D01*
X148504927Y-69488797D01*
X148436654Y-69473945D01*
X148408401Y-69452794D01*
X148387363Y-69431756D01*
X148387358Y-69431752D01*
X148209025Y-69302187D01*
X148209024Y-69302186D01*
X148209022Y-69302185D01*
X148146096Y-69270122D01*
X148012606Y-69202104D01*
X148012603Y-69202103D01*
X147802952Y-69133985D01*
X147694086Y-69116742D01*
X147585222Y-69099500D01*
X147364778Y-69099500D01*
X147292201Y-69110995D01*
X147147047Y-69133985D01*
X146937396Y-69202103D01*
X146937393Y-69202104D01*
X146740974Y-69302187D01*
X146562641Y-69431752D01*
X146562636Y-69431756D01*
X146406754Y-69587638D01*
X146326295Y-69698384D01*
X146270965Y-69741051D01*
X146225976Y-69749500D01*
X146224024Y-69749500D01*
X146156985Y-69729815D01*
X146123705Y-69698384D01*
X146043245Y-69587638D01*
X145887363Y-69431756D01*
X145887358Y-69431752D01*
X145709025Y-69302187D01*
X145709024Y-69302186D01*
X145709022Y-69302185D01*
X145646096Y-69270122D01*
X145512606Y-69202104D01*
X145512603Y-69202103D01*
X145302952Y-69133985D01*
X145194086Y-69116742D01*
X145085222Y-69099500D01*
X144864778Y-69099500D01*
X144792201Y-69110995D01*
X144647047Y-69133985D01*
X144437396Y-69202103D01*
X144437393Y-69202104D01*
X144240974Y-69302187D01*
X144062641Y-69431752D01*
X144062636Y-69431756D01*
X143906756Y-69587636D01*
X143906752Y-69587641D01*
X143777187Y-69765974D01*
X143677104Y-69962393D01*
X143677103Y-69962396D01*
X143608985Y-70172047D01*
X143574500Y-70389778D01*
X143574500Y-70610221D01*
X143608985Y-70827952D01*
X143677103Y-71037603D01*
X143677104Y-71037606D01*
X143750012Y-71180693D01*
X143762908Y-71249362D01*
X143736632Y-71314102D01*
X143679526Y-71354360D01*
X143609720Y-71357352D01*
X143609229Y-71357230D01*
X143528286Y-71336834D01*
X143421412Y-71309904D01*
X143289217Y-71299500D01*
X143289215Y-71299500D01*
X141660791Y-71299500D01*
X141660776Y-71299501D01*
X141528586Y-71309904D01*
X141528579Y-71309905D01*
X141310321Y-71364902D01*
X141310318Y-71364903D01*
X141105377Y-71457991D01*
X141105367Y-71457997D01*
X140920354Y-71586174D01*
X140920342Y-71586184D01*
X140761184Y-71745342D01*
X140761174Y-71745354D01*
X140632997Y-71930367D01*
X140632991Y-71930377D01*
X140539903Y-72135318D01*
X140539902Y-72135321D01*
X140484905Y-72353579D01*
X140484904Y-72353586D01*
X140474500Y-72485777D01*
X140474500Y-75114208D01*
X140474501Y-75114223D01*
X140484904Y-75246413D01*
X140484905Y-75246420D01*
X140539902Y-75464678D01*
X140539903Y-75464681D01*
X140632991Y-75669622D01*
X140632997Y-75669632D01*
X140761174Y-75854645D01*
X140761178Y-75854650D01*
X140761181Y-75854654D01*
X140920346Y-76013819D01*
X140920350Y-76013822D01*
X140920354Y-76013825D01*
X140960334Y-76041523D01*
X141105374Y-76142007D01*
X141310317Y-76235096D01*
X141310321Y-76235097D01*
X141528579Y-76290094D01*
X141528581Y-76290094D01*
X141528588Y-76290096D01*
X141660783Y-76300500D01*
X143289216Y-76300499D01*
X143421412Y-76290096D01*
X143639683Y-76235096D01*
X143844626Y-76142007D01*
X144029654Y-76013819D01*
X144188819Y-75854654D01*
X144317007Y-75669626D01*
X144410096Y-75464683D01*
X144465096Y-75246412D01*
X144475500Y-75114217D01*
X144475499Y-72485784D01*
X144465096Y-72353588D01*
X144410096Y-72135317D01*
X144341917Y-71985217D01*
X144332115Y-71916040D01*
X144361270Y-71852543D01*
X144420125Y-71814889D01*
X144489995Y-71815031D01*
X144493129Y-71816004D01*
X144647049Y-71866015D01*
X144864778Y-71900500D01*
X144864779Y-71900500D01*
X145085221Y-71900500D01*
X145085222Y-71900500D01*
X145302951Y-71866015D01*
X145512606Y-71797895D01*
X145709022Y-71697815D01*
X145887365Y-71568242D01*
X146043242Y-71412365D01*
X146123705Y-71301615D01*
X146179035Y-71258949D01*
X146224024Y-71250500D01*
X146225976Y-71250500D01*
X146293015Y-71270185D01*
X146326294Y-71301615D01*
X146331912Y-71309348D01*
X146406754Y-71412361D01*
X146562636Y-71568243D01*
X146562641Y-71568247D01*
X146718192Y-71681260D01*
X146740978Y-71697815D01*
X146834262Y-71745346D01*
X146937393Y-71797895D01*
X146937396Y-71797896D01*
X147042221Y-71831955D01*
X147147049Y-71866015D01*
X147364778Y-71900500D01*
X147364779Y-71900500D01*
X147585220Y-71900500D01*
X147585222Y-71900500D01*
X147720431Y-71879084D01*
X147789722Y-71888038D01*
X147827508Y-71913876D01*
X148213181Y-72299548D01*
X148246666Y-72360871D01*
X148249500Y-72387229D01*
X148249500Y-78634083D01*
X148229815Y-78701122D01*
X148177011Y-78746877D01*
X148107853Y-78756821D01*
X148044297Y-78727796D01*
X148015015Y-78690378D01*
X147986331Y-78634083D01*
X147922287Y-78508390D01*
X147899030Y-78476379D01*
X147801971Y-78342786D01*
X147657213Y-78198028D01*
X147491613Y-78077715D01*
X147491612Y-78077714D01*
X147491610Y-78077713D01*
X147432675Y-78047684D01*
X147309223Y-77984781D01*
X147114534Y-77921522D01*
X146939995Y-77893878D01*
X146912352Y-77889500D01*
X146707648Y-77889500D01*
X146683329Y-77893351D01*
X146505465Y-77921522D01*
X146310776Y-77984781D01*
X146128386Y-78077715D01*
X145962786Y-78198028D01*
X145818028Y-78342786D01*
X145697715Y-78508386D01*
X145604781Y-78690776D01*
X145541522Y-78885465D01*
X145509500Y-79087648D01*
X145509500Y-79292352D01*
X145516980Y-79339581D01*
X145518318Y-79348026D01*
X145509363Y-79417320D01*
X145483526Y-79455105D01*
X145087505Y-79851126D01*
X145026182Y-79884611D01*
X144956490Y-79879627D01*
X144921171Y-79859308D01*
X144918423Y-79857053D01*
X144909552Y-79851126D01*
X144830062Y-79798013D01*
X144830061Y-79798012D01*
X144795500Y-79774919D01*
X144795488Y-79774912D01*
X144658917Y-79718343D01*
X144658907Y-79718340D01*
X144513920Y-79689500D01*
X144513918Y-79689500D01*
X140614000Y-79689500D01*
X140546961Y-79669815D01*
X140501206Y-79617011D01*
X140490000Y-79565500D01*
X140490000Y-79440000D01*
X139505686Y-79440000D01*
X139510080Y-79435606D01*
X139562741Y-79344394D01*
X139590000Y-79242661D01*
X139590000Y-79137339D01*
X139562741Y-79035606D01*
X139510080Y-78944394D01*
X139505686Y-78940000D01*
X140489999Y-78940000D01*
X140489999Y-78590028D01*
X140489998Y-78590013D01*
X140479505Y-78487302D01*
X140424358Y-78320880D01*
X140424356Y-78320875D01*
X140332315Y-78171654D01*
X140208345Y-78047684D01*
X140059124Y-77955643D01*
X140059119Y-77955641D01*
X139892697Y-77900494D01*
X139892690Y-77900493D01*
X139789986Y-77890000D01*
X139440000Y-77890000D01*
X139440000Y-78874314D01*
X139435606Y-78869920D01*
X139344394Y-78817259D01*
X139242661Y-78790000D01*
X139137339Y-78790000D01*
X139035606Y-78817259D01*
X138944394Y-78869920D01*
X138940000Y-78874314D01*
X138940000Y-77890000D01*
X138590028Y-77890000D01*
X138590012Y-77890001D01*
X138487302Y-77900494D01*
X138320880Y-77955641D01*
X138320875Y-77955643D01*
X138171654Y-78047684D01*
X138047684Y-78171654D01*
X137955643Y-78320875D01*
X137955641Y-78320880D01*
X137900494Y-78487302D01*
X137900493Y-78487309D01*
X137890000Y-78590013D01*
X137890000Y-78940000D01*
X138874314Y-78940000D01*
X138869920Y-78944394D01*
X138817259Y-79035606D01*
X138790000Y-79137339D01*
X138790000Y-79242661D01*
X138817259Y-79344394D01*
X138869920Y-79435606D01*
X138874314Y-79440000D01*
X137890001Y-79440000D01*
X137890001Y-79565500D01*
X137870316Y-79632539D01*
X137817512Y-79678294D01*
X137766001Y-79689500D01*
X131646080Y-79689500D01*
X131501092Y-79718340D01*
X131501082Y-79718343D01*
X131364511Y-79774912D01*
X131364498Y-79774919D01*
X131241584Y-79857048D01*
X131241580Y-79857051D01*
X130439198Y-80659433D01*
X130377875Y-80692918D01*
X130308183Y-80687934D01*
X130252250Y-80646062D01*
X130229044Y-80591150D01*
X130201757Y-80418872D01*
X130201757Y-80418869D01*
X130136095Y-80216782D01*
X130039624Y-80027449D01*
X130000270Y-79973282D01*
X130000269Y-79973282D01*
X129367962Y-80605589D01*
X129350925Y-80542007D01*
X129285099Y-80427993D01*
X129192007Y-80334901D01*
X129077993Y-80269075D01*
X129014407Y-80252036D01*
X129646716Y-79619728D01*
X129592550Y-79580375D01*
X129403217Y-79483904D01*
X129201129Y-79418242D01*
X128991246Y-79385000D01*
X128778754Y-79385000D01*
X128568872Y-79418242D01*
X128568869Y-79418242D01*
X128366782Y-79483904D01*
X128180795Y-79578670D01*
X128112126Y-79591566D01*
X128047385Y-79565290D01*
X128007128Y-79508183D01*
X128000500Y-79468185D01*
X128000500Y-77207648D01*
X133699500Y-77207648D01*
X133699500Y-77412351D01*
X133731522Y-77614534D01*
X133794781Y-77809223D01*
X133841286Y-77900493D01*
X133884233Y-77984781D01*
X133887715Y-77991613D01*
X134008028Y-78157213D01*
X134152786Y-78301971D01*
X134307749Y-78414556D01*
X134318390Y-78422287D01*
X134434607Y-78481503D01*
X134500776Y-78515218D01*
X134500778Y-78515218D01*
X134500781Y-78515220D01*
X134605137Y-78549127D01*
X134695465Y-78578477D01*
X134768300Y-78590013D01*
X134897648Y-78610500D01*
X134897649Y-78610500D01*
X135102351Y-78610500D01*
X135102352Y-78610500D01*
X135304534Y-78578477D01*
X135499219Y-78515220D01*
X135512624Y-78508390D01*
X135575449Y-78476379D01*
X135587311Y-78470334D01*
X135681610Y-78422287D01*
X135821193Y-78320875D01*
X135847213Y-78301971D01*
X135847215Y-78301968D01*
X135847219Y-78301966D01*
X135991966Y-78157219D01*
X135991968Y-78157215D01*
X135991971Y-78157213D01*
X136100354Y-78008034D01*
X136112287Y-77991610D01*
X136205220Y-77809219D01*
X136268477Y-77614534D01*
X136300500Y-77412352D01*
X136300500Y-77207648D01*
X136268477Y-77005466D01*
X136205220Y-76810781D01*
X136205218Y-76810778D01*
X136205218Y-76810776D01*
X136171503Y-76744607D01*
X136112287Y-76628390D01*
X136104556Y-76617749D01*
X135991971Y-76462786D01*
X135847213Y-76318028D01*
X135681613Y-76197715D01*
X135681612Y-76197714D01*
X135681610Y-76197713D01*
X135624653Y-76168691D01*
X135499223Y-76104781D01*
X135304534Y-76041522D01*
X135129595Y-76013815D01*
X135102352Y-76009500D01*
X134897648Y-76009500D01*
X134873329Y-76013351D01*
X134695465Y-76041522D01*
X134500776Y-76104781D01*
X134318386Y-76197715D01*
X134152786Y-76318028D01*
X134008028Y-76462786D01*
X133887715Y-76628386D01*
X133794781Y-76810776D01*
X133731522Y-77005465D01*
X133699500Y-77207648D01*
X128000500Y-77207648D01*
X128000500Y-70662159D01*
X128020185Y-70595120D01*
X128072989Y-70549365D01*
X128142147Y-70539421D01*
X128201876Y-70566698D01*
X128202453Y-70565947D01*
X128260154Y-70610222D01*
X128422161Y-70734534D01*
X128422168Y-70734538D01*
X128658470Y-70870968D01*
X128658475Y-70870970D01*
X128658478Y-70870972D01*
X128717013Y-70895218D01*
X128869733Y-70958477D01*
X128910582Y-70975397D01*
X129174160Y-71046022D01*
X129444701Y-71081639D01*
X129444708Y-71081639D01*
X129717570Y-71081639D01*
X129717577Y-71081639D01*
X129988118Y-71046022D01*
X130251696Y-70975397D01*
X130503800Y-70870972D01*
X130740117Y-70734534D01*
X130956604Y-70568418D01*
X131149557Y-70375465D01*
X131315673Y-70158978D01*
X131452111Y-69922661D01*
X131556536Y-69670557D01*
X131578751Y-69587648D01*
X133699500Y-69587648D01*
X133699500Y-69792351D01*
X133731522Y-69994534D01*
X133794781Y-70189223D01*
X133887715Y-70371613D01*
X134008028Y-70537213D01*
X134152786Y-70681971D01*
X134307749Y-70794556D01*
X134318390Y-70802287D01*
X134434607Y-70861503D01*
X134500776Y-70895218D01*
X134500778Y-70895218D01*
X134500781Y-70895220D01*
X134605137Y-70929127D01*
X134695465Y-70958477D01*
X134796557Y-70974488D01*
X134897648Y-70990500D01*
X134897649Y-70990500D01*
X135102351Y-70990500D01*
X135102352Y-70990500D01*
X135304534Y-70958477D01*
X135499219Y-70895220D01*
X135681610Y-70802287D01*
X135774874Y-70734527D01*
X135847213Y-70681971D01*
X135847215Y-70681968D01*
X135847219Y-70681966D01*
X135991966Y-70537219D01*
X135991968Y-70537215D01*
X135991971Y-70537213D01*
X136099087Y-70389778D01*
X136112287Y-70371610D01*
X136205220Y-70189219D01*
X136268477Y-69994534D01*
X136300500Y-69792352D01*
X136300500Y-69587648D01*
X136294645Y-69550682D01*
X136268477Y-69385465D01*
X136222010Y-69242455D01*
X136205220Y-69190781D01*
X136205218Y-69190778D01*
X136205218Y-69190776D01*
X136158710Y-69099500D01*
X136112287Y-69008390D01*
X136104556Y-68997749D01*
X135991971Y-68842786D01*
X135847213Y-68698028D01*
X135681613Y-68577715D01*
X135681612Y-68577714D01*
X135681610Y-68577713D01*
X135624653Y-68548691D01*
X135499223Y-68484781D01*
X135304534Y-68421522D01*
X135129995Y-68393878D01*
X135102352Y-68389500D01*
X134897648Y-68389500D01*
X134873329Y-68393351D01*
X134695465Y-68421522D01*
X134500776Y-68484781D01*
X134318386Y-68577715D01*
X134152786Y-68698028D01*
X134008028Y-68842786D01*
X133887715Y-69008386D01*
X133794781Y-69190776D01*
X133731522Y-69385465D01*
X133699500Y-69587648D01*
X131578751Y-69587648D01*
X131627161Y-69406979D01*
X131662778Y-69136438D01*
X131662778Y-68863562D01*
X131627161Y-68593021D01*
X131556536Y-68329443D01*
X131452111Y-68077339D01*
X131452109Y-68077336D01*
X131452107Y-68077331D01*
X131315677Y-67841029D01*
X131315673Y-67841022D01*
X131299146Y-67819483D01*
X131207453Y-67699986D01*
X131182259Y-67634817D01*
X131196297Y-67566372D01*
X131245112Y-67516383D01*
X131305829Y-67500500D01*
X156694171Y-67500500D01*
X156761210Y-67520185D01*
G37*
%TD.AperFunction*%
%TD*%
M02*
